<?xml version="1.0" encoding="UTF-8" standalone="no"?>
<!-- Created with Inkscape (http://www.inkscape.org/) -->

<svg
   xmlns:dc="http://purl.org/dc/elements/1.1/"
   xmlns:cc="http://creativecommons.org/ns#"
   xmlns:rdf="http://www.w3.org/1999/02/22-rdf-syntax-ns#"
   xmlns:svg="http://www.w3.org/2000/svg"
   xmlns="http://www.w3.org/2000/svg"
   xmlns:sodipodi="http://sodipodi.sourceforge.net/DTD/sodipodi-0.dtd"
   xmlns:inkscape="http://www.inkscape.org/namespaces/inkscape"
   version="1.1"
   id="svg99"
   width="235.52505"
   height="84.383675"
   viewBox="0 0 235.52506 84.383675"
   sodipodi:docname="MilwaukieDentistryLogo.svg"
   inkscape:version="0.92.2 5c3e80d, 2017-08-06">
  <metadata
     id="metadata105">
    <rdf:RDF>
      <cc:Work
         rdf:about="">
        <dc:format>image/svg+xml</dc:format>
        <dc:type
           rdf:resource="http://purl.org/dc/dcmitype/StillImage" />
        <dc:title></dc:title>
      </cc:Work>
    </rdf:RDF>
  </metadata>
  <defs
     id="defs103" />
  <sodipodi:namedview
     pagecolor="#ffffff"
     bordercolor="#666666"
     borderopacity="1"
     objecttolerance="10"
     gridtolerance="10"
     guidetolerance="10"
     inkscape:pageopacity="0"
     inkscape:pageshadow="2"
     inkscape:window-width="1580"
     inkscape:window-height="760"
     id="namedview101"
     showgrid="false"
     fit-margin-top="0"
     fit-margin-left="0"
     fit-margin-right="0"
     fit-margin-bottom="0"
     inkscape:zoom="2.680904"
     inkscape:cx="103.04497"
     inkscape:cy="43.100797"
     inkscape:window-x="182"
     inkscape:window-y="115"
     inkscape:window-maximized="0"
     inkscape:current-layer="svg99"
     inkscape:measure-start="0,0"
     inkscape:measure-end="0,0" />
  <path
     style="fill:#0d2c3e;fill-opacity:1;stroke-width:0.31999999"
     d="m 37.471318,78.383672 c -0.48648,-3.3 -0.93641,-6.16511 -0.99983,-6.36692 -0.0634,-0.20182 -0.74326,0.23474 -1.51075,0.97013 -3.1313,3.00031 -9.88236,5.93133 -12.76971,5.54405 -0.65841,-0.0883 -1.96284,-0.51732 -2.89872,-0.95336 -4.28182,-1.99497 -6.7503,-4.93643 -8.26683,-9.85085 -1.4988904,-4.85724 -3.5176704,-7.0284 -5.1562804,-5.54548 -0.5353,0.48444 -0.59723,0.82114 -0.41674,2.26571 0.19413,1.55377 0.1581,1.69672 -0.42764,1.69672 -1.04879,0 -2.80062,-2.28922 -3.94614,-5.15668 -0.94941003,-2.37655 -1.07270003,-3.03086 -1.07843003076,-5.72332 -0.005999999,-2.69593 0.0919000008,-3.22692 0.86300000076,-4.69161 1.17366003,-2.22943 5.43673003,-6.43502 7.79958003,-7.6944 3.3846604,-1.80401 5.7617404,-2.17399 13.9678804,-2.17399 4.004,0 7.28,-0.088 7.28,-0.19546 0,-0.23374 -4.49125,-2.29534 -6.08,-2.79088 -0.616,-0.19214 -2.82193,-0.56818 -4.90206,-0.83565 -3.18008,-0.40889 -4.13227,-0.67032 -5.98225,-1.64246 -6.5087104,-3.42023 -10.0410204,-12.1382 -7.6949404,-18.99163 0.38711,-1.13085 1.19525,-3.09163 1.79586,-4.3573 0.929,-1.9576904 1.41532,-2.5470804 3.2577104,-3.9481404 1.19112,-0.90581 3.17368,-2.81919 4.40568,-4.25196 2.65738,-3.09043999 3.8479,-4.06660999 4.34875,-3.56575999 0.24935,0.24935 0.24911,0.40752 -9.6e-4,0.56201 -0.19133,0.11826 -0.34788,0.49450999 -0.34788,0.83611999 0,0.84397 1.63827,0.82834 5.33473,-0.0509 3.82938,-0.91085999 5.49529,-0.73450999 8.87316,0.93929 1.48197,0.73435 3.31945,1.85727 4.0833,2.49539 2.31002,1.92982 5.35686,5.5981404 6.40105,7.7067404 l 0.98517,1.9894 2.44129,-1.22605 c 3.97225,-1.99487 4.42094,-2.11275 8.04138,-2.11275 3.85053,0 5.17503,0.39229 8.84735,2.62045 2.51925,1.52853 2.95456,2.13764 2.15732,3.01858 -1.08383,1.19763 0.0113,3.98544 2.03002,5.16778 1.29018,0.75565 2.35269,0.34165 3.47476,-1.35393 1.39493,-2.10787 1.8672,-1.73549 3.63491,2.86608 0.8833,2.29932 1.04117,3.12022 1.02293,5.31881 -0.0445,5.35654 -1.74557,10.34251 -4.20211,12.3164 -1.52691,1.22692 -2.46835,2.75066 -1.9931,3.2259 0.1686,0.1686 0.78929,0.26006 1.37932,0.20323 0.86513,-0.0833 1.20707,-0.34348 1.76655,-1.34416 l 0.69376,-1.24085 0.4802,0.76085 c 1.41625,2.244 3.18357,5.67135 3.63305,7.04556 1.4122,4.31756 -0.72121,8.76331 -6.11876,12.75072 -3.34737,2.47284 -5.87139,3.49711 -10.02776,4.06935 -6.17386,0.85 -10.16571,-0.0548 -14.48808,-3.28389 -2.39096,-1.7862 -3.71744,-3.10172 -5.43381,-5.3889 l -0.93655,-1.24801 v 2.87682 c 0,1.81483 -0.23273,3.7868 -0.63044,5.34183 -0.59016,2.30751 -0.60028,2.63281 -0.15838,5.09119 0.52714,2.9325 1.93751,11.65832 2.14425,13.26618 0.14737,1.14613 0.0572,1.19626 -1.2546,0.6975 -0.7971,-0.30306 -0.83634,-0.37859 -0.34083,-0.6559 0.308,-0.17237 0.56,-0.53368 0.56,-0.80292 0,-0.37744 -0.21981,-0.44125 -0.96,-0.27868 -1.23876,0.27208 -1.22665,-0.16593 0.0243,-0.87787 0.66768,-0.38001 0.93121,-0.73711 0.82653,-1.12 -0.0845,-0.30917 -0.32814,-1.75013 -0.54136,-3.20213 -0.27043,-1.84163 -0.521,-2.64 -0.82855,-2.64 -0.54867,0 -0.56539,-0.38127 -0.0409,-0.93196 0.32633,-0.34262 0.26739,-0.37991 -0.32,-0.20244 -0.43284,0.13077 -0.72,0.0813 -0.72,-0.12403 0,-0.18786 0.144,-0.34157 0.32,-0.34157 0.176,0 0.32,-0.1594 0.32,-0.35423 0,-0.19483 -0.21139,-0.27312 -0.46975,-0.17398 -0.8213,0.31517 -0.88018,-0.41364 -0.0635,-0.78576 0.69444,-0.3164 0.76379,-0.50631 0.61402,-1.68136 -0.0929,-0.72857 -0.22886,-1.3925 -0.30221,-1.4754 -0.24268,-0.27426 -0.68255,0.72435 -0.51333,1.16534 0.11007,0.28687 6.4e-4,0.36915 -0.32506,0.2442 -0.93159,-0.35748 -1.20178,0.87782 -0.80526,3.68169 0.42901,3.03362 0.8798,3.90443 1.67818,3.24182 0.2873,-0.23843 0.60338,-0.3525 0.70239,-0.25348 0.099,0.099 -0.19246,0.42409 -0.64773,0.7224 -0.98163,0.64319 -1.09434,1.25312 -0.18776,1.01604 0.41595,-0.10877 0.64,-0.01 0.64,0.28268 0,0.24753 -0.22052,0.45004 -0.49004,0.45004 -0.76528,0 -0.97661,0.9921 -0.31448,1.47628 0.45694,0.33411 0.49974,0.51981 0.20238,0.8781 -0.26653,0.32115 -0.29043,0.84011 -0.0815,1.77 0.21869,0.9733 0.19584,1.31562 -0.0878,1.31562 -0.25282,0 -0.68472,-2.04384 -1.26793,-6 z m -10.57339,-1.31527 c 4.8262,-1.62582 9.63879,-5.70531 11.74587,-9.9566 0.98727,-1.99193 1.03114,-2.24795 1.13678,-6.63426 0.10648,-4.42124 -0.29166,-8.41027 -0.93643,-9.3822 -0.23454,-0.35356 -0.27524,-0.27134 -0.16251,0.32833 0.38091,2.02636 0.50472,4.16 0.2414,4.16 -0.15934,0 -0.41063,-1.188 -0.55842,-2.64 l -0.26874,-2.64 -0.20413,4.32 c -0.16922,3.5811 -0.34814,4.69302 -1.04609,6.50086 -2.38171,6.16911 -4.81813,9.14806 -9.36729,11.45315 -2.67514,1.35551 -2.87949,1.40599 -5.69122,1.40599 -2.56849,0 -3.13006,-0.10824 -4.70695,-0.90728 -1.95257,-0.98941 -2.97023,-1.79533 -4.06078,-3.21587 -0.83793,-1.09147 -0.92001,-0.73121 -0.18091,0.79399 1.34705,2.77973 4.03446,5.15784 7.46447,6.60537 2.042,0.86177 3.60298,0.81645 6.59495,-0.19148 z m -0.43556,-4.50001 c 2.79799,-1.19371 5.13466,-2.92976 6.3804,-4.74038 1.43461,-2.08513 3.42033,-6.27034 3.96232,-8.35116 0.54722,-2.10094 0.66807,-10.77607 0.14562,-10.45318 -0.176,0.10878 -0.34044,0.58528 -0.36541,1.05889 -0.0323,0.61184 -0.10174,0.49058 -0.24,-0.41889 l -0.19459,-1.28 -0.42295,1.84 c -0.23262,1.012 -0.54913,1.84 -0.70335,1.84 -0.15969,0 -0.1612,-0.37884 -0.004,-0.88 0.15229,-0.484 0.37099,-1.312 0.486,-1.84 0.39192,-1.79935 -0.37058,-0.36915 -1.26173,2.36659 -2.20712,6.77568 -4.48519,10.75472 -8.10204,14.15163 -2.83334,2.66106 -4.50719,3.48178 -7.10099,3.48178 -1.94459,0 -4.3561,-0.85932 -5.77142,-2.0566 -0.264,-0.22333 -0.68489,-0.52384 -0.93532,-0.6678 -0.72288,-0.41556 0.41139,1.08131 1.28085,1.6903 0.63235,0.44292 0.65603,0.53115 0.18674,0.69577 -0.498,0.17469 -0.49924,0.24308 -0.0169,0.93166 0.58785,0.83928 3.3154,2.65588 4.76467,3.17336 0.528,0.18854 2.04,0.35026 3.36,0.35939 1.95296,0.0135 2.80079,-0.15438 4.55166,-0.90136 z m -3.98008,-4.57281 c 3.02532,-1.41212 6.78607,-5.75738 8.84784,-10.22302 1.20408,-2.60794 3.78449,-9.89164 3.57761,-10.09852 -0.0726,-0.0726 -0.68124,0.75765 -1.35245,1.84509 -0.6712,1.08744 -1.27312,1.81893 -1.33759,1.62552 -0.0645,-0.1934 0.21041,-0.81175 0.61083,-1.37409 0.40043,-0.56234 0.55044,-0.91268 0.33335,-0.77851 -0.21708,0.13416 -1.88194,2.50016 -3.6997,5.25778 -3.91386,5.9375 -6.06362,8.22541 -9.20575,9.79736 -1.95139,0.97624 -2.59277,1.13808 -4.54872,1.14782 -2.13622,0.0106 -2.22754,0.0396 -1.477,0.46866 1.14051,0.65198 -0.0336,0.64454 -1.29589,-0.008 -1.63513,-0.84556 -1.0114,-0.0478 1.06351,1.36027 3.06593,2.08058 5.51882,2.36387 8.48396,0.97985 z m 39.68897,-1.99711 c 3.26204,-0.49657 5.88031,-1.5606 8.71019,-3.53973 4.2782,-2.99204 6.32441,-5.81067 6.62502,-9.12592 0.13693,-1.5101 0.0178,-2.1372 -0.7174,-3.77538 -1.25934,-2.80618 -1.75837,-3.11923 -1.75837,-1.10305 0,4.76376 -3.94416,9.90797 -9.76,12.72957 -4.33179,2.1016 -7.85895,2.54406 -12.55235,1.57461 -5.91747,-1.22229 -9.84114,-4.73317 -11.08248,-9.91655 -0.25004,-1.04409 -0.63166,-2.33035 -0.84804,-2.85835 -0.60592,-1.47854 -0.76193,-0.34971 -0.18549,1.34207 0.62768,1.84213 0.63385,2.37076 0.0182,1.55677 -0.39074,-0.51657 -0.46984,-0.53389 -0.46984,-0.10285 0,0.28506 0.21558,0.73389 0.47908,0.99738 0.26349,0.2635 0.39578,0.69615 0.29397,0.96146 -0.22205,0.57865 1.00344,2.74847 2.61689,4.63342 1.22304,1.42885 5.47527,4.77534 7.20317,5.66888 2.59164,1.34019 6.66961,1.68194 11.42745,0.95767 z m -20.74056,-10.5748 c 0,-0.264 0.0566,-0.48 0.12576,-0.48 0.0692,0 0.20865,0.216 0.30996,0.48 0.10131,0.264 0.0447,0.48 -0.12576,0.48 -0.17048,0 -0.30996,-0.216 -0.30996,-0.48 z m -21.51285,8.32127 c 2.68126,-1.22752 5.21475,-3.9396 9.11787,-9.76059 1.94746,-2.90437 3.22902,-5.00636 2.84791,-4.67108 -0.38111,0.33528 -0.69292,0.46091 -0.69292,0.27918 0,-0.18173 0.216,-0.50967 0.48,-0.72878 0.264,-0.2191 0.48,-0.54354 0.48,-0.72098 0,-0.17744 -0.55992,0.38061 -1.24426,1.24011 -2.91411,3.65997 -9.64264,8.54826 -14.46156,10.50637 -1.47026,0.59742 -2.58684,0.8145 -4.18935,0.8145 -1.24322,0 -2.18483,0.13792 -2.18483,0.32 0,0.176 0.18,0.33013 0.4,0.3425 0.22,0.0123 0.11348,0.13436 -0.23671,0.27109 -0.5433004,0.21213 -0.4082304,0.34967 0.92068,0.93751 0.85656,0.3789 1.68308,0.6889 1.83671,0.6889 0.15362,0 0.27932,0.15941 0.27932,0.35424 0,0.21186 -0.22508,0.26158 -0.56,0.1237 -0.308,-0.1268 -0.848,-0.30263 -1.2,-0.39074 -0.59847,-0.1498 -0.595,-0.12671 0.0533,0.35576 1.7789,1.32383 5.50851,1.34094 8.35382,0.0383 z m 9.67286,-12.2097 c 0,-0.176 0.36,-0.65821 0.8,-1.07157 0.44,-0.41336 0.8,-0.60756 0.8,-0.43156 0,0.176 -0.36,0.6582 -0.8,1.07156 -0.44,0.41336 -0.8,0.60757 -0.8,0.43157 z m -24.8979004,7.80596 c 0.28708,-6.45499 2.40485,-9.10062 9.8579004,-12.31497 3.83467,-1.65381 4.78607,-1.89947 10.87307,-2.80758 4.26462,-0.63622 4.69545,-0.74975 3.04693,-0.80287 l -1.92,-0.0619 1.92,-0.40409 c 1.89606,-0.39906 1.86014,-0.40492 -2.88,-0.47039 -5.00314,-0.0691 -5.45113,-0.20317 -2.03249,-0.60829 1.90412,-0.22565 1.74953,-0.25639 -2.44751,-0.48673 -4.84295,-0.26578 -7.6495,0.0983 -11.3075804,1.46699 -2.42473,0.90721 -7.00757,5.30206 -8.36822,8.02495 -1.40788003,2.81742 -1.30190003,6.33 0.29718,9.84977 l 0.64401,1.41754 -0.18831,-1.2 c -0.27296,-1.73944 0.35,-1.48088 0.77097,0.32 l 0.35532,1.52 -0.13001,-1.6 c -0.0715,-0.88 -0.006,-2.104 0.14556,-2.72 0.25836,-1.05004 0.27761,-1.00756 0.30832,0.68 0.0397,2.18156 0.34502,3.84256 0.66945,3.64205 0.13133,-0.0812 0.30476,-1.6312 0.38541,-3.44452 z m -0.7021,-4.23753 c 0,-0.264 0.144,-0.48 0.32,-0.48 0.176,0 0.32,0.216 0.32,0.48 0,0.264 -0.144,0.48 -0.32,0.48 -0.176,0 -0.32,-0.216 -0.32,-0.48 z m 57.9918304,6.91034 c 3.7946,-1.30554 8.14773,-4.17963 9.99122,-6.59657 1.20357,-1.57796 2.41972,-4.78357 2.39168,-6.30412 -0.0139,-0.75331 -0.10657,-1.15365 -0.20595,-0.88965 -0.0994,0.264 -0.30803,0.82398 -0.46369,1.24439 -0.53007,1.43166 -0.63054,0.42515 -0.12687,-1.2709 0.67658,-2.27828 0.59586,-3.00699 -0.14771,-1.33349 -0.33235,0.748 -0.78298,1.36 -1.0014,1.36 -0.30887,0 -0.31179,-0.0853 -0.0131,-0.384 0.2112,-0.2112 0.38227,-0.6072 0.38015,-0.88 -0.002,-0.2728 -0.3715,0.152 -0.82085,0.944 -2.22057,3.91388 -8.37216,8.26882 -13.33201,9.43822 -3.71329,0.8755 -8.21094,0.35168 -10.99636,-1.28068 -1.45974,-0.85547 -4.3631,-3.87781 -5.10693,-5.31622 -0.26204,-0.50672 -0.54667,-0.92132 -0.63251,-0.92132 -0.20811,0 0.72481,2.21569 1.30894,3.10875 0.25496,0.3898 0.45908,0.8938 0.45358,1.12 -0.005,0.22619 -0.36678,-0.16475 -0.80286,-0.86875 l -0.79287,-1.28 0.21402,1.12 c 0.64517,3.37613 2.88082,6.15579 6.31688,7.85398 4.13904,2.04562 9.43673,2.49533 13.38666,1.13636 z M 7.7208976,59.183692 c 0.5556,-0.66001 1.1211,-1.09052 1.25667,-0.95668 0.13556,0.13384 -0.16596,0.67384 -0.67006,1.2 -0.5041,0.52616 -0.7541,0.95666 -0.55556,0.95666 0.19855,0 0.45126,-0.14605 0.56159,-0.32457 0.29382,-0.47541 2.5979904,-1.59657 3.2644204,-1.5884 0.31501,0.004 -0.0215,0.27687 -0.74777,0.60668 -0.72629,0.32981 -1.4330004,0.78164 -1.5704604,1.00406 -0.39506,0.63922 4.8029804,0.15583 6.9458704,-0.64592 4.24509,-1.58829 12.28793,-7.3628 14.41431,-10.34903 0.61851,-0.86861 0.62281,-0.91287 0.059,-0.60739 -0.33449,0.18122 -1.0311,0.77389 -1.54803,1.31704 -0.51693,0.54314 -1.08752,0.98753 -1.26797,0.98753 -0.18045,0 0.35399,-0.69249 1.18765,-1.53889 0.83366,-0.84638 1.42791,-1.62672 1.32056,-1.73407 -0.10735,-0.10735 0.11748,-0.36252 0.49963,-0.56704 1.45043,-0.77624 0.30764,-0.64451 -1.24818,0.14388 -1.63098,0.82648 -2.12795,0.80603 -1.07182,-0.0441 1.67528,-1.3485 -1.79067,0.78972 -5.04,3.1093 -3.92756,2.80373 -6.42012,4.08977 -9.66112,4.98464 -1.11038,0.30659 -2.59488,0.80611 -3.29888,1.11004 -1.2861604,0.55527 -3.4431804,2.4558 -4.0284904,3.54946 -0.53068,0.9916 0.13395,0.65159 1.19868,-0.61321 z m 2.9898104,-1.94113 c 0,-0.32693 1.31492,-0.77064 1.55936,-0.52619 0.20362,0.20361 6.4e-4,0.35091 -0.83936,0.60912 -0.39699,0.12202 -0.72,0.0848 -0.72,-0.0829 z m -4.6545004,0.86263 c 0.40455,-0.75636 0.92145,-1.43717 1.14865,-1.5129 0.24793,-0.0826 0.13576,0.31106 -0.28052,0.98461 -0.94992,1.53699 -0.8493,1.89259 0.19937,0.70463 1.54799,-1.75358 3.0533504,-2.62693 5.9870004,-3.47342 3.42009,-0.98685 6.81178,-2.58963 8.8,-4.15854 3.19657,-2.52242 5.40422,-3.90003 7.84,-4.89228 2.68866,-1.09526 2.69894,-1.38005 0.0205,-0.56755 -1.05767,0.32084 -1.64711,0.36975 -1.78414,0.14803 -0.13494,-0.21833 -0.87822,-0.12148 -2.18205,0.28432 -1.08758,0.33849 -2.04838,0.50061 -2.13513,0.36025 -0.0867,-0.14035 0.56973,-0.42969 1.45883,-0.64299 2.68755,-0.64473 1.52407,-0.73105 -2.13011,-0.15804 -5.98916,0.93915 -12.12502,3.51865 -14.8820504,6.25637 -1.65263,1.64106 -2.67089,3.95593 -2.91771,6.63303 -0.17664,1.9159 -0.14953,1.91699 0.85737,0.0345 z m 53.7783804,-1.5676 c 4.42051,-1.46005 9.63461,-5.30817 11.34613,-8.3737 l 0.77058,-1.38022 -1.5003,1.22143 c -1.65779,1.34964 -1.98902,1.24737 -0.6203,-0.19152 0.8478,-0.89127 0.81932,-0.88446 -0.77811,0.18611 -1.90305,1.2754 -5.84677,2.85618 -8.49941,3.40686 -3.80137,0.78916 -9.4204,0.27374 -12.09525,-1.10948 -0.46264,-0.23924 -1.55206,-0.99692 -2.42094,-1.68373 -0.86888,-0.6868 -1.93674,-1.43351 -2.37304,-1.65934 -0.67026,-0.34694 -0.6196,-0.2265 0.32675,0.77684 0.616,0.65309 1.52938,1.40177 2.02974,1.66373 0.50035,0.26196 0.83669,0.54934 0.74741,0.63863 -0.26703,0.26702 -1.57601,-0.52958 -2.90416,-1.76736 -1.17197,-1.09222 -1.32064,-0.88336 -0.25472,0.35783 0.28181,0.32815 0.33542,0.56 0.12947,0.56 -0.1933,0 -0.57562,-0.32004 -0.8496,-0.7112 -0.27397,-0.39116 -0.49814,-0.55587 -0.49814,-0.36601 0,0.18985 0.5106,1.01389 1.13466,1.8312 1.15809,1.5167 1.17776,1.93102 0.044,0.92601 -0.61611,-0.54613 -0.62161,-0.54068 -0.22173,0.22018 0.66985,1.27454 3.24205,3.85567 4.68511,4.70136 2.98971,1.75208 7.83912,2.06124 11.80188,0.75238 z m 1.45519,-5.79257 c 3.21491,-0.8078 6.751,-2.42525 8.30092,-3.79692 l 1.12,-0.99121 -1.02411,0.49339 c -1.29858,0.62563 -2.0116,0.63967 -1.19705,0.0236 0.69532,-0.52591 0.39902,-0.65069 -0.45712,-0.1925 -0.30591,0.16372 -0.73952,0.18438 -0.96356,0.0459 -0.22405,-0.13847 -1.07064,-0.12785 -1.8813,0.0236 -3.62455,0.67714 -9.0884,0.49039 -14.47686,-0.49482 -1.32,-0.24134 -3.048,-0.4337 -3.84,-0.42746 l -1.44,0.0113 1.44,0.64215 c 0.792,0.35319 1.28569,0.69497 1.09709,0.75952 -0.1886,0.0645 -1.1785,-0.25217 -2.19978,-0.70383 -2.15625,-0.95359 -2.64659,-0.86575 -0.96581,0.17303 0.69894,0.43196 1.02372,0.80752 0.81169,0.93856 -0.37245,0.23019 1.50806,1.71076 3.49681,2.75314 2.8614,1.49976 7.9345,1.80906 12.17908,0.74254 z m -13.45908,-1.88135 c 0,-0.176 0.144,-0.32 0.32,-0.32 0.176,0 0.32,0.144 0.32,0.32 0,0.176 -0.144,0.32 -0.32,0.32 -0.176,0 -0.32,-0.144 -0.32,-0.32 z m 16.8,-0.64 c 0.10877,-0.176 0.51327,-0.30987 0.89889,-0.2975 0.67595,0.0217 0.67815,0.0324 0.0611,0.2975 -0.88079,0.37849 -1.19392,0.37849 -0.96,0 z m -17.92,-0.32 c -0.10877,-0.176 -0.0453,-0.32 0.14111,-0.32 0.18639,0 0.33889,0.144 0.33889,0.32 0,0.176 -0.0635,0.32 -0.14111,0.32 -0.0776,0 -0.23012,-0.144 -0.33889,-0.32 z m -6.61654,0.21349 c 0.0698,-0.35971 -0.11265,-0.53349 -0.56,-0.53349 -0.73118,0 -0.75237,0.036 -0.46403,0.78736 0.24367,0.635 0.88235,0.47666 1.02403,-0.25387 z m -3.14345,-0.52223 c 0,-0.16981 -0.288,-0.46287 -0.64,-0.65126 -0.49508,-0.26496 -0.64,-0.24335 -0.64,0.0954 0,0.24086 0.096,0.53393 0.21333,0.65126 0.32224,0.32224 1.06667,0.25565 1.06667,-0.0954 z m 4.47999,-0.81126 c 0,-0.264 -0.216,-0.48 -0.48,-0.48 -0.4997,0 -0.63487,0.37847 -0.26667,0.74667 0.36821,0.3682 0.74667,0.23304 0.74667,-0.26667 z m -3.51999,-0.10666 c 0,-0.14667 -0.216,-0.26667 -0.48,-0.26667 -0.264,0 -0.48,0.12 -0.48,0.26667 0,0.14666 0.216,0.26666 0.48,0.26666 0.264,0 0.48,-0.12 0.48,-0.26666 z m 2.07999,-0.0533 c 0.2503,-0.40499 -0.17332,-0.40499 -0.8,0 -0.41366,0.26733 -0.40521,0.31088 0.0611,0.31511 0.29762,0.003 0.63012,-0.13911 0.73889,-0.31511 z m -6.87999,-0.64 c -0.18838,-0.352 -0.40945,-0.64 -0.49126,-0.64 -0.0818,0 -0.14874,0.288 -0.14874,0.64 0,0.36208 0.21333,0.64 0.49126,0.64 0.3921,0 0.42212,-0.12918 0.14874,-0.64 z m 1.024,-0.384 c -0.20533,-0.20533 -0.47956,-0.2671 -0.6094,-0.13726 -0.12984,0.12983 -0.0284,0.3644 0.2254,0.52126 0.59763,0.36936 0.86749,0.0995 0.384,-0.384 z m 2.176,-0.61827 c 0,-0.57105 -0.77323,-0.64608 -1.16312,-0.11287 -0.32961,0.45077 -0.34054,0.68565 -0.0483,1.03778 0.32271,0.38886 0.43846,0.37212 0.79457,-0.1149 0.22926,-0.31353 0.41684,-0.67804 0.41684,-0.81001 z m 28.55371,0.84837 c 2.96442,-0.51695 5.26695,-1.26863 3.04628,-0.99448 -0.66,0.0815 -1.2,0.0132 -1.2,-0.15173 0,-0.16494 0.324,-0.30209 0.72,-0.30478 0.95191,-0.006 1.65659,-0.47521 1.38211,-0.91933 -0.12093,-0.19568 -0.0674,-0.35578 0.119,-0.35578 0.18639,0 0.33889,-0.27259 0.33889,-0.60576 0,-0.33317 0.23661,-0.69656 0.5258,-0.80753 0.28919,-0.11097 0.45682,-0.27075 0.37251,-0.35507 -0.0843,-0.0843 -0.99372,0.13585 -2.0209,0.48925 -2.70378,0.93024 -10.96482,2.53823 -14.23136,2.77009 -2.02329,0.14362 -3.66966,0.0435 -5.90583,-0.35913 -3.61336,-0.6506 -4.39587,-0.48155 -1.23537,0.26688 7.02459,1.66349 13.4554,2.13538 18.08887,1.32737 z m -0.39372,-0.8061 c 0,-0.176 0.396,-0.30987 0.88,-0.2975 0.77979,0.0199 0.80712,0.0538 0.24,0.2975 -0.87404,0.37559 -1.12,0.37559 -1.12,0 z m -26.87999,0.32 c 0,-0.352 -0.144,-0.64 -0.32,-0.64 -0.176,0 -0.32,0.288 -0.32,0.64 0,0.352 0.144,0.64 0.32,0.64 0.176,0 0.32,-0.288 0.32,-0.64 z m 1.91509,0.08 c -0.01,-1.09645 -0.49964,-1.43183 -0.87819,-0.601 -0.37502,0.82309 -0.24217,1.161 0.45642,1.161 0.23467,0 0.42447,-0.252 0.42177,-0.56 z m 2.3782,-0.2858 c 0.11097,-0.28919 0.1404,-0.58716 0.0654,-0.66217 -0.18544,-0.18544 -1.47869,0.641 -1.47869,0.94495 0,0.47654 1.21522,0.2334 1.4133,-0.28278 z m -7.81329,-0.7542 c -0.33823,-0.63198 -0.96,-0.88069 -0.96,-0.384 0,0.33654 0.69502,1.024 1.03526,1.024 0.14699,0 0.11312,-0.288 -0.0753,-0.64 z m 6.83999,0.0647 c 0.29403,-0.47575 -0.36407,-1.12232 -0.92374,-0.90756 -0.4458,0.17107 -0.47443,0.29947 -0.15312,0.68663 0.43792,0.52766 0.83673,0.60948 1.07686,0.22093 z m 2.76,-0.35048 c 0,-0.67552 -0.82891,-1.14524 -1.13811,-0.64494 -0.30095,0.48696 0.0948,1.2507 0.64807,1.2507 0.26952,0 0.49004,-0.27259 0.49004,-0.60576 z m -8.09131,-0.87222 c -0.30685,-0.30685 -1.21932,0.52951 -0.98729,0.90495 0.1156,0.18705 0.39817,0.11062 0.69743,-0.18864 0.27669,-0.2767 0.40714,-0.59904 0.28986,-0.71631 z m 2.65132,0.67798 c 0,-0.264 -0.216,-0.48 -0.48,-0.48 -0.4997,0 -0.63487,0.37847 -0.26667,0.74667 0.36821,0.36821 0.74667,0.23304 0.74667,-0.26667 z m 19.77699,-0.31053 c 6.555,-0.98455 12.52601,-2.78889 13.83299,-4.1801 0.91274,-0.97157 0.90891,-3.07852 -0.0104,-5.75068 -0.55519,-1.61367 -2.26813,-4.00505 -2.86232,-3.99598 -0.0975,0.002 -0.21012,0.8075 -0.25032,1.79113 -0.0853,2.08726 -0.90408,3.90044 -2.58667,5.7283 -3.63329,3.94696 -7.87178,5.60859 -15.62113,6.12401 -2.26805,0.15085 -3.20063,0.31123 -2.67911,0.46073 1.41034,0.40429 6.94664,0.30778 10.177,-0.17741 z m -25.21699,-0.80947 c 0,-0.352 -0.12637,-0.64 -0.28082,-0.64 -0.41963,0 -1.02532,0.8272 -0.78307,1.06945 0.43809,0.43809 1.06389,0.18549 1.06389,-0.42945 z m 6.76301,-0.085 c -0.176,-0.176 -0.57764,-0.22113 -0.89254,-0.10029 -0.46303,0.17768 -0.48799,0.27195 -0.13053,0.49288 0.5925,0.36619 1.45201,0.0364 1.02307,-0.39259 z m 2.51698,0.085 c 0,-0.70844 -0.24054,-0.78739 -0.96,-0.3151 -0.42667,0.28009 -0.42667,0.35012 0,0.63021 0.71946,0.47229 0.96,0.39334 0.96,-0.31511 z m -7.1816,-0.54746 c -0.0981,-0.25568 -0.17839,-0.5251 -0.17839,-0.59871 0,-0.0736 -0.288,-0.13383 -0.64,-0.13383 -0.71643,0 -0.91507,1.13072 -0.24,1.3662 0.65019,0.2268 1.25063,-0.13269 1.05839,-0.63366 z m 3.02161,0.24635 c 0,-0.53646 -0.56753,-0.66929 -0.75643,-0.17705 -0.11145,0.29045 9.6e-4,0.47816 0.28647,0.47816 0.25848,0 0.46996,-0.1355 0.46996,-0.30111 z m 20.10086,-0.79878 c 3.31266,-1.1267 5.28582,-2.29273 7.06725,-4.17633 2.17334,-2.29797 3.02737,-4.06358 3.05192,-6.30944 0.0161,-1.46811 -0.10538,-1.91894 -0.62004,-2.30189 -0.70514,-0.52468 -3.32289,-0.94951 -4.80948,-0.78051 -0.90006,0.10233 -0.95992,0.20149 -1.12751,1.86807 -0.2378,2.36479 -1.80694,5.55976 -3.7071,7.54812 -1.96563,2.05687 -3.03785,2.7887 -6.12107,4.17785 l -2.47484,1.11503 3.21642,-0.17794 c 2.18309,-0.12078 3.95793,-0.43014 5.52445,-0.96296 z m -21.55775,0.11256 c -0.10303,-0.16671 -0.32373,-0.21881 -0.49044,-0.11577 -0.16671,0.10303 -0.21881,0.32373 -0.11578,0.49044 0.10303,0.16671 0.32373,0.21881 0.49044,0.11577 0.16671,-0.10303 0.21881,-0.32373 0.11578,-0.49044 z m 11.81346,0.18536 c 0.50412,-0.26291 1.15212,-0.47938 1.44,-0.48103 0.72771,-0.004 3.48194,-1.63798 4.93045,-2.92475 1.33773,-1.18834 2.38906,-3.71706 2.69614,-6.48488 l 0.18055,-1.62736 -2.36186,2.31951 c -2.69031,2.64208 -3.71225,3.38451 -7.96186,5.78422 -1.672,0.94416 -2.68,1.63219 -2.24,1.52896 2.15024,-0.50448 2.2794,-0.45816 0.8,0.28692 -1.51355,0.76229 -1.53948,0.79582 -0.48,0.62058 0.616,-0.10189 1.81333,-0.40579 2.66073,-0.67533 0.8474,-0.26954 1.61863,-0.41217 1.71384,-0.31696 0.0952,0.0952 -0.88611,0.48247 -2.18073,0.86057 -3.17807,0.92819 -3.26597,0.98295 -1.23964,0.77222 1.86776,-0.19423 2.01488,0.0885 0.26204,0.50364 l -1.05624,0.25015 0.96,0.0308 c 0.528,0.0169 1.37246,-0.18433 1.87658,-0.44725 z m -6.91498,-0.39803 c 0.082,-0.24915 -0.1729,-0.4 -0.67605,-0.4 -0.83792,0 -1.30924,0.38965 -0.93002,0.76887 0.33676,0.33676 1.45854,0.0791 1.60607,-0.36887 z m -9.52159,-0.0408 c 0,-0.47223 -0.91031,-1.06767 -1.28152,-0.83824 -0.24974,0.15434 -0.24255,0.34496 0.0251,0.66754 0.41365,0.49842 1.25636,0.61291 1.25636,0.1707 z m 11.83999,-0.39342 c 0,-0.48335 -0.14331,-0.61925 -0.50617,-0.48 -0.2784,0.10683 -0.6384,0.19423 -0.8,0.19423 -0.16161,0 -0.29383,0.216 -0.29383,0.48 0,0.29867 0.30222,0.48 0.8,0.48 0.60021,0 0.8,-0.16838 0.8,-0.67423 z m -10.22643,-0.7202 c -0.42726,-0.42727 -1.14374,0.22019 -0.82119,0.74209 0.16601,0.26862 0.34593,0.26273 0.68968,-0.0226 0.32266,-0.26778 0.36293,-0.48812 0.13151,-0.71954 z m 5.74643,0.75443 c 0,-0.176 -0.2075,-0.32 -0.46111,-0.32 -0.25362,0 -0.55011,0.144 -0.65888,0.32 -0.10877,0.176 0.0987,0.32 0.4611,0.32 0.36239,0 0.65889,-0.144 0.65889,-0.32 z m -3.68683,-0.64756 c -0.3642,-0.40243 -0.69948,-0.53412 -0.88572,-0.34788 -0.43294,0.43295 0.0197,0.99544 0.80104,0.99544 0.65305,0 0.65528,-0.017 0.0847,-0.64756 z m 1.76684,0.008 c 0,-0.352 -0.144,-0.64 -0.32,-0.64 -0.176,0 -0.32,0.288 -0.32,0.64 0,0.352 0.144,0.64 0.32,0.64 0.176,0 0.32,-0.288 0.32,-0.64 z m 4.27178,-0.46975 c 0.0991,-0.25836 0.0786,-0.52945 -0.0458,-0.60242 -0.35537,-0.2086 -1.66603,0.37503 -1.66603,0.74186 0,0.5122 1.5089,0.38929 1.71179,-0.13944 z m -1.91741,-0.5549 c 0.18864,-0.29956 0.24096,-0.64667 0.11626,-0.77137 -0.25326,-0.25326 -1.51063,0.76975 -1.51063,1.22908 0,0.47209 1.01963,0.13739 1.39437,-0.45771 z m -5.87437,0.23924 c 0,-0.52123 -0.81406,-1.77506 -1.15248,-1.77506 -0.73752,0 -0.80378,0.60375 -0.13919,1.26833 0.59304,0.59304 1.29167,0.86712 1.29167,0.50673 z m 12.56638,-1.33674 c 1.62449,-0.81492 3.58273,-1.91362 4.35166,-2.44154 2.16296,-1.48505 5.65194,-4.90697 6.75368,-6.62388 0.5471,-0.85258 1.31423,-1.63034 1.70472,-1.72835 0.3905,-0.098 0.94884,-0.58252 1.24075,-1.0767 0.29192,-0.49416 1.44247,-1.9024 2.55678,-3.12942 1.31717,-1.45038 1.70405,-2.0245 1.10577,-1.64092 -0.58916,0.37772 -0.99396,0.47075 -1.1251,0.25856 -0.27832,-0.45033 -7.21574,3.32563 -10.03293,5.46081 -2.81201,2.13125 -9.34685,9.23566 -8.80389,9.57122 0.27646,0.17087 0.16882,0.46873 -0.38081,1.05379 -1.29004,1.37318 -0.5755,1.18787 1.36965,-0.35522 1.01414,-0.80452 1.91993,-1.38673 2.01286,-1.2938 0.0929,0.0929 -0.79942,0.90205 -1.983,1.79805 -1.18359,0.896 -2.05562,1.62908 -1.93786,1.62908 0.11777,0 1.54324,-0.66675 3.16772,-1.48168 z m -2.00639,-1.62954 c 0,-0.40264 0.91468,-1.20077 1.1297,-0.98575 0.0848,0.0848 -0.13466,0.41567 -0.48774,0.7352 -0.35308,0.31953 -0.64196,0.43228 -0.64196,0.25055 z m 2.88,-2.80878 c 0.2191,-0.264 0.54236,-0.48 0.71836,-0.48 0.17851,0 0.14386,0.21225 -0.0784,0.48 -0.2191,0.264 -0.54236,0.48 -0.71836,0.48 -0.17851,0 -0.14386,-0.21224 0.0784,-0.48 z m 13.44,-10.36223 c 0,-0.176 0.144,-0.40899 0.32,-0.51776 0.176,-0.10878 0.32,-0.0538 0.32,0.12223 0,0.176 -0.144,0.40899 -0.32,0.51777 -0.176,0.10877 -0.32,0.0538 -0.32,-0.12224 z m -24.18616,15.768 c 0.54114,-0.20766 0.71481,-1.72577 0.19743,-1.72577 -0.33656,0 -0.97126,1.03183 -0.97126,1.57897 0,0.39474 0.0855,0.41095 0.77383,0.1468 z m -5.57383,-0.78478 c -1.8549,-1.49499 -4.8539,-3.53317 -8,-5.43693 -6.81493,-4.12384 -10.50167,-7.56637 -11.80763,-11.0255 -1.3416804,-3.55376 -1.0943504,-7.89766 0.72416,-12.7185504 0.44814,-1.188 0.68264,-2.16 0.52112,-2.16 -0.73563,0 -3.7413204,2.8560104 -4.4021004,4.1828804 -2.16592,4.34921 -2.03388,10.76629 0.31824,15.46681 2.0301704,4.05712 5.6931304,6.44363 12.6079704,8.2144 2.01589,0.51623 4.15444,1.143 4.75233,1.39281 0.96655,0.40385 1.0661,0.39958 0.89796,-0.0386 -0.2435,-0.63457 0.38356,-0.30613 2.78795,1.46023 1.78831,1.31377 3.06285,1.84145 1.6,0.66243 z m 4.16,0.17901 c 0,-0.264 -0.144,-0.48 -0.32,-0.48 -0.176,0 -0.32,0.216 -0.32,0.48 0,0.264 0.144,0.48 0.32,0.48 0.176,0 0.32,-0.216 0.32,-0.48 z m 3.83147,-0.56751 c 0.54052,-0.95865 0.23534,-1.49106 -0.56682,-0.98889 -0.67018,0.41954 -0.96439,2.17582 -0.32927,1.96562 0.23354,-0.0773 0.63677,-0.51682 0.89609,-0.97673 z m 19.50472,-1.99249 c 1.42352,-1.93397 2.52537,-4.44441 2.78634,-6.34834 0.22202,-1.6198 -0.0305,-1.89407 -1.47728,-1.60471 -1.2165,0.2433 -1.42942,0.70473 -1.84987,4.00895 -0.19664,1.54538 -0.68379,3.2493 -1.31395,4.59593 -0.55079,1.17702 -1.00144,2.22097 -1.00144,2.31988 0,0.36382 1.71261,-1.41806 2.8562,-2.97171 z m -17.52294,0.9932 c 0.1323,-0.75209 -0.62077,-1.07444 -0.88733,-0.37981 -0.25737,0.67071 0.12864,1.66333 0.49782,1.28013 0.15552,-0.16144 0.3308,-0.56658 0.38951,-0.90032 z m 2.90113,-1.0732 c 2.66665,-3.29804 7.52567,-8.09739 9.84561,-9.7247 1.144,-0.80245 3.52,-2.22726 5.28,-3.16625 4.18478,-2.23265 5.6,-3.12387 5.6,-3.52655 0,-0.18121 -0.64617,0.0492 -1.43593,0.51204 -0.78976,0.46283 -1.61776,0.77716 -1.84,0.69852 -0.22224,-0.0786 0.42393,-0.55326 1.43593,-1.05469 1.012,-0.50143 1.84,-1.02811 1.84,-1.17042 0,-0.1423 -0.72,0.10613 -1.6,0.55206 -0.88,0.44593 -1.6,0.65517 -1.6,0.46499 0,-0.19018 0.7166,-0.66061 1.59246,-1.04539 0.87585,-0.38478 1.59585,-0.79792 1.6,-0.91809 0.01,-0.28154 -7.72609,3.20671 -10.86365,4.89866 -2.85077,1.53729 -6.22955,4.22899 -8.15065,6.49319 -1.37252,1.61764 -3.23968,4.91178 -2.94889,5.20257 0.0838,0.0838 0.24715,-0.14656 0.36308,-0.51182 0.11593,-0.36526 0.35809,-0.66412 0.53814,-0.66412 0.18004,0 -0.27435,1.09635 -1.00977,2.43632 -1.42872,2.6032 -1.29493,2.9862 0.21065,0.60307 0.49975,-0.79103 1.02513,-1.4385 1.16752,-1.43881 0.29427,-6.4e-4 0.15992,0.25637 -1.12872,2.15942 -1.3537,1.99913 -0.88371,1.65863 1.10422,-0.8 z m -8.07438,1.21889 c 0,-0.731 -0.50452,-1.13698 -0.80624,-0.64878 -0.26882,0.43494 0.0443,1.26989 0.4762,1.26989 0.18152,0 0.33004,-0.2795 0.33004,-0.62111 z m 39.07073,-2.80964 c 0.4004,-1.53505 0.66007,-3.59323 0.67741,-5.36924 0.0259,-2.65453 -0.0696,-3.11475 -1.22002,-5.87842 -0.68647,-1.64913 -1.39213,-3.00276 -1.56813,-3.00807 -0.176,-0.005 -0.53105,0.36182 -0.789,0.81586 -0.40424,0.71152 -0.40988,1.14902 -0.0409,3.16807 0.23549,1.28841 0.53764,3.78256 0.67145,5.54256 0.1338,1.76 0.40418,3.60537 0.60084,4.10083 0.19666,0.49545 0.36194,1.64745 0.36729,2.56 0.0123,2.10429 0.39744,1.53254 1.30101,-1.93159 z m -42.86213,-0.69109 c -1.77732,-3.30932 -3.2734,-5.58175 -9.77169,-14.84249 -2.83873,-4.04548 -4.76349,-7.8631 -5.28159,-10.4756604 -0.19196,-0.968 -0.40573,-2.048 -0.47505,-2.4 -0.0693,-0.352 -0.14273,-0.0541 -0.16315,0.66192 -0.0204,0.71605 0.18868,2.06225 0.46465,2.99156 0.27597,0.9293004 0.424,1.7674104 0.32895,1.8624604 -0.36415,0.36415 -0.94163,-1.7769804 -1.09929,-4.0759404 -0.15221,-2.21939 -0.18304,-2.30367 -0.40957,-1.12 -0.13474,0.704 -0.26763,1.856 -0.29532,2.56 -0.0442,1.1233604 -0.0817,1.1821004 -0.30654,0.48 -0.48904,-1.52702 -0.3391,3.6301304 0.16318,5.6127604 0.26575,1.04898 1.04694,3.05924 1.73598,4.46724 1.3439,2.74614 3.38506,4.93597 9.48091,10.17148 1.59504,1.36992 3.35904,3.08794 3.92,3.81781 1.22243,1.59052 1.36285,1.22392 0.19148,-0.4999 -0.45564,-0.67054 -0.76676,-1.28085 -0.69137,-1.35624 0.25722,-0.25723 1.14455,0.98432 2.48961,3.48343 0.73904,1.37313 1.40734,2.43295 1.48513,2.35517 0.0778,-0.0778 -0.71706,-1.73991 -1.76632,-3.6936 z m -1.6486,3.20159 c 0,-0.15414 -0.71629,-0.76614 -1.59175,-1.36 -1.52837,-1.03675 -2.23907,-1.91987 -1.01998,-1.26743 0.32354,0.17315 0.89954,0.23343 1.28,0.13393 0.43065,-0.11262 0.69173,-0.0331 0.69173,0.21067 0,0.22241 -0.21454,0.30923 -0.49662,0.20099 -0.29547,-0.11339 -0.41417,-0.0572 -0.29307,0.13878 0.11195,0.18114 0.46719,0.24567 0.78942,0.1434 0.38656,-0.12269 0.7559,0.0568 1.08571,0.52768 0.27491,0.39249 0.57333,0.64013 0.66316,0.5503 0.33772,-0.33772 -3.47578,-4.53588 -6.14378,-6.7635 -4.41436,-3.68572 -5.85584,-5.07223 -7.30065,-7.02223 -2.90482,-3.9205 -4.43376,-9.63008 -3.72469,-13.9092104 0.44304,-2.67361 0.25271,-3.05786 -0.2615,-0.52795 -0.20847,1.02565 -0.49955,2.1528304 -0.64685,2.5048304 -0.48588,1.16112 -0.35878,-1.1799704 0.15714,-2.8942204 0.49286,-1.63766 0.40668,-2.40541 -0.11577,-1.03127 -2.31666,6.0932904 -2.39209,6.4029104 -2.39839,9.8454904 -0.003,1.848 0.16958,3.95891 0.38437,4.69091 1.0068,3.43116 5.05363,7.23548 12.54062,11.78908 2.31502,1.408 4.66627,2.95015 5.22501,3.427 1.15234,0.98345 1.17589,0.99572 1.17589,0.61275 z m 7.91278,-0.78141 c -0.22171,-0.66514 -1.02898,-0.40516 -1.1383,0.36658 -0.095,0.67045 -0.037,0.70828 0.57944,0.37834 0.37674,-0.20162 0.62822,-0.53684 0.55886,-0.74492 z m -13.43064,0.55714 c -0.10149,-0.10149 -1.88949,-0.60963 -3.97334,-1.12918 -10.34665,-2.57969 -14.2985204,-6.88327 -14.8075004,-16.12535 l -0.1939,-3.52094 -0.40575,2.60267 c -0.47195,3.02729 -0.0335,5.92343 1.3565,8.95951 1.63387,3.56883 5.0560704,6.77955 8.3418504,7.82635 1.94317,0.61906 10.07981,1.78461 9.68214,1.38694 z m 16.07295,-2.33546 c 0.006,-0.55246 1.65466,-4.25692 1.82054,-4.09105 0.0673,0.0673 -0.0435,0.53824 -0.24603,1.04665 -0.51205,1.28519 -1.239,3.64438 -1.12297,3.64438 0.0528,0 0.64071,-1.116 1.30643,-2.47999 2.36215,-4.83983 8.51899,-9.79311 16.32693,-13.13529 3.97526,-1.70161 5.33612,-2.35526 5.19573,-2.49565 -0.0756,-0.0756 -0.67914,0.0889 -1.34119,0.36548 -1.88495,0.78759 -1.73511,0.26276 0.18404,-0.64457 l 1.72142,-0.81385 -4.16,0.14532 c -6.44429,0.22513 -10.10846,1.42959 -13.54337,4.45189 -1.52155,1.33879 -2.22532,2.32919 -3.76405,5.29711 -1.12923,2.17809 -1.7483,3.69971 -1.53486,3.77258 0.23897,0.0816 0.11814,0.72877 -0.36399,1.94955 -0.80385,2.03541 -1.35926,4.713 -0.8105,3.90742 0.17983,-0.264 0.32918,-0.67799 0.33187,-0.91998 z m 3.2049,-5.92083 c 0,-0.0665 0.252,-0.31845 0.56,-0.56 0.50754,-0.39804 0.51886,-0.38672 0.12082,0.12082 -0.41804,0.53304 -0.68082,0.70255 -0.68082,0.43918 z m -10.13757,4.08098 c -0.4983,-2.63905 -1.7703,-6.10533 -3.16332,-8.62026 -1.16574,-2.10461 -4.72632,-7.211 -6.5875,-9.44742 -2.00549,-2.40985 -4.61421,-6.3253004 -5.58314,-8.3797904 l -0.78887,-1.67269 0.17775,1.38354 c 0.11603,0.90315 0.064,1.31327 -0.14979,1.18112 -0.18015,-0.11134 -0.32755,-1.00994 -0.32755,-1.99688 0,-0.98695 -0.0882,-1.70623 -0.19604,-1.59841 -0.10783,0.10782 -0.19058,1.14227 -0.18391,2.29877 0.0228,3.95675 1.42788,6.9926404 6.89217,14.8918604 2.13059,3.08 4.77695,6.95509 5.88079,8.61131 1.10384,1.65621 2.00699,2.83848 2.00699,2.62725 0,-0.53453 -1.06942,-2.54345 -2.0552,-3.86073 -0.45364,-0.6062 -0.81962,-1.2542 -0.81329,-1.44 0.0226,-0.66278 1.66903,1.61999 2.75674,3.82217 0.97506,1.97407 1.18296,1.86669 0.54227,-0.28008 -0.11172,-0.37433 -0.052,-0.5215 0.15887,-0.3912 0.18588,0.11488 0.596,1.35691 0.91137,2.76007 0.31538,1.40316 0.66543,2.5512 0.77789,2.5512 0.11245,0 -0.003,-1.09792 -0.25623,-2.43983 z m -6.28909,-7.3735 c -0.30582,-0.30582 -0.26305,-0.74666 0.0724,-0.74666 0.15717,0 0.36865,0.216 0.46996,0.48 0.18718,0.48776 -0.15369,0.65535 -0.54239,0.26666 z M 18.070708,8.0447916 c 0,-0.27439 0.144,-0.40989 0.32,-0.30111 0.176,0.10877 0.32,0.33327 0.32,0.49888 0,0.16561 -0.144,0.30112 -0.32,0.30112 -0.176,0 -0.32,-0.2245 -0.32,-0.49889 z m 21.31951,24.9299504 c 0.26124,-1.02908 1.33476,-3.60734 2.38559,-5.72946 2.65015,-5.35187 2.99398,-7.87194 1.70022,-12.4616 -0.71869,-2.54963 -2.20717,-4.8057504 -4.91817,-7.4546404 -4.52564,-4.42196 -8.80166,-6.35445999 -12.44715,-5.62536 -1.00664,0.20132 -1.40017,0.76 -0.53535,0.76 0.25556,0 1.94756,0.74756 3.76,1.66126 2.6478,1.33482 3.74292,2.11617 5.57302,3.97626 2.69229,2.7364104 4.6151,5.5122004 5.5743,8.0471004 0.97942,2.5883 0.74164,5.6027 -0.94912,12.0326 -0.73428,2.79248 -1.27568,5.13661 -1.20311,5.20918 0.0726,0.0726 0.31568,-0.52431 0.54025,-1.3264 0.48997,-1.75002 0.81345,-1.70866 0.37312,0.0477 -0.6142,2.44993 -0.74143,3.14728 -0.53686,2.94272 0.11455,-0.11456 0.42202,-1.05026 0.68326,-2.07935 z m -0.19518,-5.39106 c 1.50813,-5.65611 1.74357,-8.58604 0.88121,-10.96624 -0.91652,-2.52971 -2.62976,-5.01776 -5.36554,-7.7920704 -2.36542,-2.39873 -3.15801,-2.97153 -6.08,-4.39399 -1.848,-0.89964 -3.864,-1.73469 -4.48,-1.85567 -1.03918,-0.2041 -1.08676,-0.17958 -0.65934,0.33988 0.42867,0.52096 0.3731,0.5453 -0.8,0.35035 l -1.26066,-0.20948 1.04,0.69503 c 1.60221,1.07077 1.23087,1.41102 -0.45908,0.42065 -0.82448,-0.48318 -1.39938,-0.71722 -1.27754,-0.52008 0.12183,0.19713 1.39223,1.0337 2.8231,1.85902 4.44855,2.56592 7.14804,5.5858904 9.8618,11.0326004 2.14279,4.30069 2.83612,7.51345 2.91773,13.52 0.0257,1.892 0.17436,3.43999 0.33036,3.43999 0.15599,0 0.28363,-0.86399 0.28363,-1.91999 0,-1.09594 0.14056,-1.92 0.32749,-1.92 0.20955,0 0.27089,0.95072 0.17033,2.64 -0.10722,1.80121 -0.0716,2.28415 0.1121,1.51999 0.14808,-0.616 0.88357,-3.42399 1.63441,-6.23999 z m -4.34222,4.88 c -0.12791,-1.45459 -0.10084,-1.56193 0.20175,-0.8 0.60713,1.52879 0.93635,0.96226 0.9298,-1.6 -0.0168,-6.55506 -1.72205,-12.23962 -5.20201,-17.34077 -1.64353,-2.4092 -4.71125,-5.1976404 -7.67608,-6.9772604 -3.01103,-1.80735 -3.62217,-1.7881 -1.43557,0.0452 0.748,0.62715 1.18042,1.1431 0.96092,1.14654 -0.21949,0.003 -0.9793,-0.51793 -1.68846,-1.15861 -0.70915,-0.64068 -1.35188,-1.10237 -1.42828,-1.02597 -0.0764,0.0764 0.28171,0.77428 0.79582,1.55085 0.51411,0.77656 0.85857,1.48809 0.76548,1.58118 -0.22357,0.22357 -1.2301,-1.10489 -2.04658,-2.70118 -0.37706,-0.73718 -0.56798,-0.94074 -0.45021,-0.48 0.37823,1.4796 2.35529,4.94258 4.11058,7.2000004 7.76734,9.9893 10.86004,15.40091 11.56006,20.22777 0.21858,1.50719 0.37532,2.01222 0.62448,2.01222 0.0693,0 0.0596,-0.756 -0.0217,-1.67999 z M 24.950708,8.2236816 c -0.10877,-0.176 -0.0453,-0.32 0.14111,-0.32 0.18639,0 0.33889,0.144 0.33889,0.32 0,0.176 -0.0635,0.32 -0.14111,0.32 -0.0776,0 -0.23012,-0.144 -0.33889,-0.32 z m -1.6,-0.96 c -0.10877,-0.176 -0.0453,-0.32 0.14111,-0.32 0.18639,0 0.33889,0.144 0.33889,0.32 0,0.176 -0.0635,0.32 -0.14111,0.32 -0.0776,0 -0.23012,-0.144 -0.33889,-0.32 z m 48.33724,19.9907504 c -0.22845,-1.22691 -0.5172,-2.79679 -0.64166,-3.48861 -0.166,-0.92267 -0.30351,-1.13585 -0.51604,-0.8 -0.15936,0.25182 -0.29196,0.86235 -0.29465,1.35674 -0.003,0.49439 -0.13538,0.81824 -0.29486,0.71968 -0.15948,-0.0986 -0.22157,-0.50306 -0.13798,-0.89888 0.12933,-0.61246 0.10066,-0.63985 -0.19242,-0.18384 -0.18942,0.29471 -0.43357,1.38894 -0.54255,2.43163 l -0.19815,1.89578 1.40053,0.95219 c 0.92213,0.62693 1.47442,0.83158 1.61683,0.59912 0.11897,-0.19418 0.0294,-1.3569 -0.19905,-2.58381 z m -3.24387,0.0892 c 0.33229,-1.64359 0.45792,-4.08 0.21037,-4.08 -0.14636,0 -0.44429,0.43016 -0.66207,0.95593 -0.21777,0.52576 -0.52272,0.87759 -0.67764,0.78184 -0.15493,-0.0957 -0.044,-0.63392 0.24658,-1.19593 0.50816,-0.98293 0.50604,-1.00357 -0.0558,-0.54184 -0.70093,0.576 -2.3948,3.17975 -2.3948,3.68119 0,0.28784 1.13533,0.69948 2.9539,1.07102 0.12865,0.0263 0.29941,-0.27621 0.37948,-0.67221 z m -3.12092,-2.08 c 1.54376,-2.71644 1.66179,-3.06723 0.59214,-1.76 -1.17743,1.43894 -1.67128,1.31104 -0.61777,-0.16 l 0.85939,-1.2 -1.35483,1.38161 c -1.6936,1.72708 -2.08006,1.53898 -0.47903,-0.23316 1.48227,-1.6407 1.00238,-1.7385 -0.53219,-0.10845 -1.30376,1.38486 -3.16017,3.76167 -3.16017,4.04604 0,0.10668 0.77961,0.19396 1.73246,0.19396 h 1.73246 z m -17.98217,-5.82831 c 2.73661,-2.31712 7.09502,-3.6732 13.06258,-4.06428 3.22756,-0.21151 3.24382,-0.21669 1.9807,-0.6311 -1.2156,-0.39882 -1.22623,-0.4135 -0.23357,-0.3225 1.53696,0.1409 1.27114,-0.24268 -0.81783,-1.18016 -2.663,-1.19508 -4.93728,-1.60189 -7.8423,-1.40278 -2.83623,0.1944 -5.65356,1.36471 -7.49987,3.11542 -1.01635,0.96372 -1.04,1.04877 -1.04,3.73952 0,3.08568 -0.27262,3.00061 2.39029,0.74588 z"
     id="path109"
     inkscape:connector-curvature="0" />
  <g
     aria-label="milwaukie"
     style="font-style:normal;font-variant:normal;font-weight:normal;font-stretch:normal;font-size:64px;line-height:125%;font-family:Blanch;-inkscape-font-specification:Blanch;letter-spacing:0px;word-spacing:0px;fill:#0d2c3e;fill-opacity:1;stroke:none;stroke-width:1px;stroke-linecap:butt;stroke-linejoin:miter;stroke-opacity:1"
     id="text937">
    <path
       d="m 101.10505,-1.8119812e-6 q 2.816,0 4.81067,1.9946667119812 1.99467,1.9946667 1.99467,4.8106668 V 38.074666 q 0,0.410666 -0.29334,0.704 -0.29333,0.234666 -0.64533,0.234666 h -1.87733 q -0.93867,0 -0.93867,-0.938666 V 6.8053317 q 0,-1.2906667 -0.88,-2.1706667 -0.88,-0.8800001 -2.17067,-0.8800001 -1.231998,0 -2.111998,0.8800001 -0.88,0.88 -0.88,2.1706667 V 38.074666 q 0,0.938666 -0.938667,0.938666 h -1.877333 q -0.938667,0 -0.938667,-0.938666 V 6.8053317 q 0,-1.2906667 -0.88,-2.1706667 -0.88,-0.8800001 -2.112,-0.8800001 -1.290667,0 -2.170667,0.8800001 -0.88,0.88 -0.88,2.1706667 V 38.074666 q 0,0.938666 -0.938666,0.938666 h -1.877334 q -0.352,0 -0.645333,-0.234666 -0.293333,-0.293334 -0.293333,-0.704 V 6.8053317 q 0,-2.8160001 1.994666,-4.8106668 1.994667,-1.9946667119812 4.810667,-1.9946667119812 2.874667,0 4.869334,2.1120000119812 Q 98.230385,-1.8119812e-6 101.10505,-1.8119812e-6 Z"
       style="font-style:normal;font-variant:normal;font-weight:normal;font-stretch:normal;font-size:58.66666794px;font-family:'Blanch Bold';-inkscape-font-specification:'Blanch Bold, ';fill:#0d2c3e;fill-opacity:1"
       id="path962" />
    <path
       d="M 116.50322,0.93866488 V 38.074666 q 0,0.938666 -0.93867,0.938666 h -1.87733 q -0.93867,0 -0.93867,-0.938666 V 0.99733154 0.93866488 q 0,-0.35200001 0.23467,-0.64533335 0.29333,-0.2933333419812 0.704,-0.2933333419812 h 1.87733 q 0.41067,0 0.64534,0.2933333419812 0.29333,0.29333334 0.29333,0.64533335 z"
       style="font-style:normal;font-variant:normal;font-weight:normal;font-stretch:normal;font-size:58.66666794px;font-family:'Blanch Bold';-inkscape-font-specification:'Blanch Bold, ';fill:#0d2c3e;fill-opacity:1"
       id="path964" />
    <path
       d="m 130.1423,35.258666 q 0.41067,0 0.64534,0.293333 0.29333,0.293333 0.29333,0.645333 v 1.877334 q 0,0.938666 -0.93867,0.938666 h -6.92266 q -0.76267,0 -1.34934,-0.528 -0.528,-0.528 -0.528,-1.349333 V 0.93866488 q 0,-0.35200001 0.23467,-0.64533335 0.29333,-0.2933333419812 0.704,-0.2933333419812 h 1.87733 q 0.352,0 0.64534,0.2933333419812 0.29333,0.29333334 0.29333,0.64533335 V 35.258666 Z"
       style="font-style:normal;font-variant:normal;font-weight:normal;font-stretch:normal;font-size:58.66666794px;font-family:'Blanch Bold';-inkscape-font-specification:'Blanch Bold, ';fill:#0d2c3e;fill-opacity:1"
       id="path966" />
    <path
       d="m 155.95472,0.05866486 q 0.93867,0 0.93867,0.93866668 V 29.215999 q 0,1.994667 -1.11467,3.754667 l -3.168,5.573333 q -0.29333,0.469333 -0.82133,0.469333 h -3.28534 q -0.528,0 -0.82133,-0.469333 l -2.40533,-4.282667 -2.464,4.282667 q -0.29334,0.469333 -0.82134,0.469333 h -3.22666 q -0.64534,0 -0.82134,-0.469333 l -3.168,-5.573333 q -1.17333,-1.701334 -1.17333,-3.754667 V 0.99733154 q 0,-0.93866668 0.93867,-0.93866668 h 1.87733 q 0.93867,0 0.93867,0.93866668 V 29.215999 q 0,0.528 0.176,0.938667 l 2.816,5.045333 2.87466,-5.045333 q 0.176,-0.410667 0.176,-0.938667 V 0.99733154 q 0,-0.93866668 0.93867,-0.93866668 h 1.87733 q 0.93867,0 0.93867,0.93866668 V 29.215999 q 0,0.528 0.176,0.938667 l 2.816,5.045333 2.87467,-5.045333 q 0.11733,-0.586667 0.11733,-0.938667 V 0.99733154 q 0,-0.41066667 0.29333,-0.64533334 0.29334,-0.29333334 0.64534,-0.29333334 z"
       style="font-style:normal;font-variant:normal;font-weight:normal;font-stretch:normal;font-size:58.66666794px;font-family:'Blanch Bold';-inkscape-font-specification:'Blanch Bold, ';fill:#0d2c3e;fill-opacity:1"
       id="path968" />
    <path
       d="m 168.59555,-1.8119812e-6 q 2.75733,0 4.752,1.9946667119812 1.99467,1.9946667 1.99467,4.8106668 V 38.074666 q 0,0.938666 -0.93867,0.938666 h -1.87733 q -0.93867,0 -0.93867,-0.938666 V 21.354665 h -6.04267 v 16.720001 0 q 0,0.938666 -0.93866,0.938666 h -1.87734 q -0.352,0 -0.64533,-0.234666 -0.29333,-0.293334 -0.29333,-0.704 v 0 -31.2693343 q 0,-2.8160001 1.99466,-4.8106668 Q 165.77955,-1.8119812e-6 168.59555,-1.8119812e-6 Z M 163.66755,38.074666 Z m 7.92,-20.474667 V 6.8053317 q 0,-1.2906667 -0.88,-2.1706667 -0.88,-0.8800001 -2.112,-0.8800001 -1.29067,0 -2.17067,0.8800001 -0.88,0.88 -0.88,2.1706667 V 17.599999 Z"
       style="font-style:normal;font-variant:normal;font-weight:normal;font-stretch:normal;font-size:58.66666794px;font-family:'Blanch Bold';-inkscape-font-specification:'Blanch Bold, ';fill:#0d2c3e;fill-opacity:1"
       id="path970" />
    <path
       d="m 192.85147,-1.8119812e-6 q 0.41067,0 0.64533,0.2933333419812 0.29334,0.29333334 0.29334,0.64533335 V 32.266666 q 0,2.816 -1.99467,4.810666 -1.99467,1.936 -4.752,1.936 -2.816,0 -4.81067,-1.936 -1.99466,-1.994666 -1.99466,-4.810666 V 0.93866488 q 0,-0.35200001 0.29333,-0.64533335 Q 180.8248,-1.8119812e-6 181.1768,-1.8119812e-6 h 1.87734 q 0.41066,0 0.64533,0.2933333419812 0.29333,0.29333334 0.29333,0.64533335 V 32.266666 q 0,1.232 0.88,2.112 0.88,0.88 2.17067,0.88 1.232,0 2.112,-0.88 0.88,-0.88 0.88,-2.112 V 0.93866488 q 0,-0.35200001 0.23467,-0.64533335 0.29333,-0.2933333419812 0.704,-0.2933333419812 z"
       style="font-style:normal;font-variant:normal;font-weight:normal;font-stretch:normal;font-size:58.66666794px;font-family:'Blanch Bold';-inkscape-font-specification:'Blanch Bold, ';fill:#0d2c3e;fill-opacity:1"
       id="path972" />
    <path
       d="M 212.23805,0.93866488 V 14.607999 q 0,2.874666 -2.112,4.869333 2.112,1.994667 2.112,4.928 v 13.669334 q 0,0.410666 -0.29333,0.704 -0.29333,0.234666 -0.64533,0.234666 h -1.87734 q -0.93866,0 -0.93866,-0.938666 V 24.405332 q 0,-1.290667 -0.88,-2.170667 -0.88,-0.88 -2.17067,-0.88 h -2.992 v 16.720001 q 0,0.938666 -0.93867,0.938666 h -1.87733 q -0.93867,0 -0.93867,-0.938666 V 21.354665 17.599999 0.99733154 0.93866488 q 0,-0.35200001 0.23467,-0.64533335 0.29333,-0.2933333419812 0.704,-0.2933333419812 h 1.87733 q 0.41067,0 0.64534,0.2933333419812 0.29333,0.29333334 0.29333,0.64533335 V 17.599999 h 2.992 q 1.29067,0 2.17067,-0.88 0.88,-0.88 0.88,-2.112 V 0.93866488 q 0,-0.35200001 0.23466,-0.64533335 0.29334,-0.2933333419812 0.704,-0.2933333419812 h 1.87734 q 0.352,0 0.64533,0.2933333419812 0.29333,0.29333334 0.29333,0.64533335 z"
       style="font-style:normal;font-variant:normal;font-weight:normal;font-stretch:normal;font-size:58.66666794px;font-family:'Blanch Bold';-inkscape-font-specification:'Blanch Bold, ';fill:#0d2c3e;fill-opacity:1"
       id="path974" />
    <path
       d="M 220.88864,0.93866488 V 38.074666 q 0,0.938666 -0.93867,0.938666 h -1.87733 q -0.93867,0 -0.93867,-0.938666 V 0.99733154 0.93866488 q 0,-0.35200001 0.23467,-0.64533335 0.29333,-0.2933333419812 0.704,-0.2933333419812 h 1.87733 q 0.41067,0 0.64534,0.2933333419812 0.29333,0.29333334 0.29333,0.64533335 z"
       style="font-style:normal;font-variant:normal;font-weight:normal;font-stretch:normal;font-size:58.66666794px;font-family:'Blanch Bold';-inkscape-font-specification:'Blanch Bold, ';fill:#0d2c3e;fill-opacity:1"
       id="path976" />
    <path
       d="m 234.58639,3.7546649 h -5.104 V 17.658665 h 5.104 q 0.93867,0 0.93867,0.938667 v 1.877333 q 0,0.352 -0.29334,0.645334 -0.23466,0.293333 -0.64533,0.293333 h -5.104 v 13.845334 h 5.104 q 0.41067,0 0.64533,0.293333 0.29334,0.293333 0.29334,0.645333 v 1.877334 q 0,0.938666 -0.93867,0.938666 h -6.98133 q -0.76267,0 -1.34934,-0.528 -0.528,-0.528 -0.528,-1.349333 V 1.8773316 q 0,-0.7626667 0.528,-1.29066673 0.58667,-0.5866666819812 1.34934,-0.5866666819812 h 6.98133 q 0.41067,0 0.64533,0.2933333419812 0.29334,0.29333334 0.29334,0.64533335 V 2.8159982 q 0,0.9386667 -0.93867,0.9386667 z"
       style="font-style:normal;font-variant:normal;font-weight:normal;font-stretch:normal;font-size:58.66666794px;font-family:'Blanch Bold';-inkscape-font-specification:'Blanch Bold, ';fill:#0d2c3e;fill-opacity:1"
       id="path978" />
  </g>
  <g
     aria-label="dentistry"
     style="font-style:normal;font-variant:normal;font-weight:normal;font-stretch:normal;font-size:64px;line-height:125%;font-family:Blanch;-inkscape-font-specification:Blanch;letter-spacing:0px;word-spacing:0px;fill:#0d2c3e;fill-opacity:1;stroke:none;stroke-width:1px;stroke-linecap:butt;stroke-linejoin:miter;stroke-opacity:1"
     id="text941">
    <path
       d="m 100.26676,45.370333 q 2.816,0 4.752,1.994667 1.99467,1.994666 1.99467,4.810666 V 77.637 q 0,2.757334 -1.99467,4.752 -1.936,1.994667 -4.752,1.994667 h -4.928 q -0.762666,0 -1.349333,-0.528 -0.528,-0.586667 -0.528,-1.349333 V 47.247666 q 0,-0.762666 0.528,-1.290667 0.586667,-0.586666 1.349333,-0.586666 z m 2.992,32.266667 V 52.175666 q 0,-1.290666 -0.88,-2.170666 -0.88,-0.88 -2.112,-0.88 h -3.050666 v 31.504 h 3.050666 q 1.232,0 2.112,-0.88 0.88,-0.88 0.88,-2.112 z"
       style="font-style:normal;font-variant:normal;font-weight:normal;font-stretch:normal;font-size:58.66666794px;font-family:'Blanch Bold';-inkscape-font-specification:'Blanch Bold, ';fill:#0d2c3e;fill-opacity:1"
       id="path981" />
    <path
       d="m 120.76801,49.125 h -5.104 v 13.904 h 5.104 q 0.93867,0 0.93867,0.938667 V 65.845 q 0,0.352 -0.29333,0.645333 -0.23467,0.293334 -0.64534,0.293334 h -5.104 V 80.629 h 5.104 q 0.41067,0 0.64534,0.293334 0.29333,0.293333 0.29333,0.645333 V 83.445 q 0,0.938667 -0.93867,0.938667 h -6.98133 q -0.76267,0 -1.34933,-0.528 -0.52801,-0.528 -0.52801,-1.349333 V 47.247666 q 0,-0.762666 0.52801,-1.290667 0.58666,-0.586666 1.34933,-0.586666 h 6.98133 q 0.41067,0 0.64534,0.293333 0.29333,0.293333 0.29333,0.645334 v 1.877333 q 0,0.938667 -0.93867,0.938667 z"
       style="font-style:normal;font-variant:normal;font-weight:normal;font-stretch:normal;font-size:58.66666794px;font-family:'Blanch Bold';-inkscape-font-specification:'Blanch Bold, ';fill:#0d2c3e;fill-opacity:1"
       id="path983" />
    <path
       d="m 133.38135,45.370333 q 2.75733,0 4.752,1.994667 1.99466,1.994666 1.99466,4.810666 V 83.445 q 0,0.938667 -0.93866,0.938667 h -1.87734 q -0.93866,0 -0.93866,-0.938667 V 52.175666 q 0,-1.290666 -0.88,-2.170666 -0.88,-0.88 -2.112,-0.88 -1.29067,0 -2.17067,0.88 -0.88,0.88 -0.88,2.170666 V 83.445 q 0,0.938667 -0.93867,0.938667 h -1.87733 q -0.93867,0 -0.93867,-0.938667 V 52.175666 q 0,-2.816 1.99467,-4.810666 1.99467,-1.994667 4.81067,-1.994667 z"
       style="font-style:normal;font-variant:normal;font-weight:normal;font-stretch:normal;font-size:58.66666794px;font-family:'Blanch Bold';-inkscape-font-specification:'Blanch Bold, ';fill:#0d2c3e;fill-opacity:1"
       id="path985" />
    <path
       d="m 152.69185,45.370333 q 0.41066,0 0.64533,0.293333 0.29333,0.293333 0.29333,0.645334 v 1.877333 q 0,0.938667 -0.93866,0.938667 h -2.64 v 34.32 q 0,0.938667 -0.93867,0.938667 h -1.87733 q -0.93867,0 -0.93867,-0.938667 v -34.32 h -2.64 q -0.93867,0 -0.93867,-0.938667 V 46.309 q 0,-0.352001 0.23467,-0.645334 0.29333,-0.293333 0.704,-0.293333 z"
       style="font-style:normal;font-variant:normal;font-weight:normal;font-stretch:normal;font-size:58.66666794px;font-family:'Blanch Bold';-inkscape-font-specification:'Blanch Bold, ';fill:#0d2c3e;fill-opacity:1"
       id="path987" />
    <path
       d="m 160.69527,46.309 v 37.136 q 0,0.938667 -0.93867,0.938667 h -1.87733 q -0.93867,0 -0.93867,-0.938667 V 46.367666 46.309 q 0,-0.352001 0.23467,-0.645334 0.29333,-0.293333 0.704,-0.293333 h 1.87733 q 0.41067,0 0.64533,0.293333 0.29334,0.293333 0.29334,0.645334 z"
       style="font-style:normal;font-variant:normal;font-weight:normal;font-stretch:normal;font-size:58.66666794px;font-family:'Blanch Bold';-inkscape-font-specification:'Blanch Bold, ';fill:#0d2c3e;fill-opacity:1"
       id="path989" />
    <path
       d="m 175.62502,55.050333 q -0.93867,0 -0.93867,-0.938667 V 52.117 q 0,-1.232 -0.88,-2.112 -0.88,-0.88 -2.112,-0.88 -1.232,0 -2.112,0.88 -0.88,0.88 -0.88,2.112 v 2.992 q 0,0.704 0.176,0.997333 l 8.448,14.901334 q 0.82133,1.466666 0.93867,1.936 0.176,0.469333 0.176,1.76 V 77.637 q 0,2.816 -1.99467,4.810667 -1.99467,1.936 -4.752,1.936 -2.75733,0 -4.752,-1.936 Q 164.94768,80.453 164.94768,77.637 v -1.994667 q 0,-0.352 0.23467,-0.645333 0.29333,-0.293333 0.704,-0.293333 h 1.87733 q 0.41067,0 0.64534,0.293333 0.29333,0.293333 0.29333,0.645333 V 77.637 q 0,1.290667 0.88,2.170667 0.88,0.88 2.112,0.88 1.232,0 2.112,-0.88 0.88,-0.88 0.88,-2.170667 v -2.933333 q 0,-0.645334 -0.176,-0.938667 l -8.448,-14.901334 q -0.82133,-1.466666 -0.99733,-1.936 -0.11734,-0.469333 -0.11734,-1.818666 v -2.992 q 0,-2.757334 1.99467,-4.752 1.99467,-1.994667 4.752,-1.994667 2.75733,0 4.752,1.994667 1.99467,1.994666 1.99467,4.752 v 1.994666 q 0,0.938667 -0.93867,0.938667 z"
       style="font-style:normal;font-variant:normal;font-weight:normal;font-stretch:normal;font-size:58.66666794px;font-family:'Blanch Bold';-inkscape-font-specification:'Blanch Bold, ';fill:#0d2c3e;fill-opacity:1"
       id="path991" />
    <path
       d="m 190.38977,45.370333 q 0.41066,0 0.64533,0.293333 0.29333,0.293333 0.29333,0.645334 v 1.877333 q 0,0.938667 -0.93866,0.938667 h -2.64 v 34.32 q 0,0.938667 -0.93867,0.938667 h -1.87733 q -0.93867,0 -0.93867,-0.938667 v -34.32 h -2.64 q -0.93867,0 -0.93867,-0.938667 V 46.309 q 0,-0.352001 0.23467,-0.645334 0.29333,-0.293333 0.704,-0.293333 z"
       style="font-style:normal;font-variant:normal;font-weight:normal;font-stretch:normal;font-size:58.66666794px;font-family:'Blanch Bold';-inkscape-font-specification:'Blanch Bold, ';fill:#0d2c3e;fill-opacity:1"
       id="path993" />
    <path
       d="m 205.00051,59.978333 v -7.802667 q 0,-1.290666 -0.88,-2.170666 -0.88,-0.88 -2.112,-0.88 h -2.992 v 13.845333 h 2.992 q 1.232,0 2.112,-0.88 0.88,-0.88 0.88,-2.112 z m 3.75467,-7.802667 v 7.802667 q 0,2.933334 -2.05334,4.869334 2.05334,1.936 2.05334,4.928 V 83.445 q 0,0.938667 -0.93867,0.938667 h -1.87733 q -0.93867,0 -0.93867,-0.938667 V 69.775667 q 0,-1.290667 -0.88,-2.170667 -0.88,-0.88 -2.112,-0.88 h -2.992 v 16.72 q 0,0.410667 -0.29333,0.704 -0.29334,0.234667 -0.64534,0.234667 h -1.87733 q -0.93867,0 -0.93867,-0.938667 V 47.247666 q 0,-0.762666 0.528,-1.290667 0.58667,-0.586666 1.34934,-0.586666 h 4.86933 q 2.816,0 4.752,1.994667 1.99467,1.994666 1.99467,4.810666 z"
       style="font-style:normal;font-variant:normal;font-weight:normal;font-stretch:normal;font-size:58.66666794px;font-family:'Blanch Bold';-inkscape-font-specification:'Blanch Bold, ';fill:#0d2c3e;fill-opacity:1"
       id="path995" />
    <path
       d="m 225.68602,45.370333 q 0.41066,0 0.64533,0.293333 0.29333,0.293333 0.29333,0.645334 v 13.669333 q 0,2.288 -1.408,4.106667 -1.34933,1.76 -3.46133,2.405333 V 83.445 q 0,0.410667 -0.29333,0.704 -0.29334,0.234667 -0.64534,0.234667 h -1.87733 q -0.93867,0 -0.93867,-0.938667 V 66.490333 Q 215.83002,65.845 214.42202,64.085 213.07268,62.266333 213.07268,59.978333 V 46.309 q 0,-0.352001 0.23467,-0.645334 0.29333,-0.293333 0.704,-0.293333 h 1.87733 q 0.41067,0 0.64534,0.293333 0.29333,0.293333 0.29333,0.645334 v 13.669333 q 0,1.232 0.88,2.112 0.88,0.88 2.17067,0.88 1.232,0 2.112,-0.88 0.88,-0.88 0.88,-2.112 V 46.309 q 0,-0.352001 0.23466,-0.645334 0.29334,-0.293333 0.704,-0.293333 z"
       style="font-style:normal;font-variant:normal;font-weight:normal;font-stretch:normal;font-size:58.66666794px;font-family:'Blanch Bold';-inkscape-font-specification:'Blanch Bold, ';fill:#0d2c3e;fill-opacity:1"
       id="path997" />
  </g>
</svg>
